<svg width="87" height="35" viewBox="0 0 87 35" fill="none" xmlns="http://www.w3.org/2000/svg">
<path d="M1 32.0046C4.12081 32.0046 2.84182 21.8178 6.42035 21.8178C9.99887 21.8178 10.5267 34 13.8073 34C18.7393 34 16.1113 26.7523 21.3674 26.7523C25.3226 26.7523 23.5027 20.9535 27.609 20.9535C30.6225 20.9535 29.3785 13.9533 33.5221 13.9533C37.6656 13.9533 36.9736 25.0977 41.8705 25.0977C46.7674 25.0977 49.7809 1 54.6779 1C59.5748 1 58.068 21.107 63.7183 20.9535C69.3686 20.8 67.8619 12.6651 72.7588 12.6651C77.6557 12.6651 78.6546 34 86 34" stroke="#00E625" stroke-width="2" stroke-linecap="round"/>
</svg>
