<svg width="37" height="37" viewBox="0 0 37 37" fill="none" xmlns="http://www.w3.org/2000/svg">
<g clip-path="url(#clip0_12_1513)">
<path d="M36.4466 22.9738C33.9748 32.8898 23.9283 38.9176 14.0264 36.4457C4.11016 33.9739 -1.91766 23.9279 0.554258 14.0262C3.02603 4.11016 13.0579 -1.91766 22.9742 0.554259C32.8761 3.01158 38.9185 13.0577 36.4466 22.9738Z" fill="url(#paint0_linear_12_1513)"/>
<path d="M27.3084 16.1948C27.6698 13.7377 25.8053 12.408 23.2327 11.5264L24.0709 8.18772L22.0475 7.68186L21.2381 10.9338C20.7034 10.8037 20.1542 10.6737 19.6049 10.558L20.4143 7.29163L18.3909 6.78577L17.567 10.11C17.119 10.0088 16.6854 9.90764 16.2663 9.80647V9.79202L13.4624 9.09827L12.9276 11.2662C12.9276 11.2662 14.4307 11.6131 14.4018 11.6276C15.2256 11.8299 15.3702 12.3791 15.3413 12.8127L14.3874 16.6139C14.4452 16.6283 14.5174 16.6428 14.6041 16.6862C14.5319 16.6717 14.4596 16.6573 14.3874 16.6283L13.0577 21.9471C12.9565 22.1928 12.6963 22.5686 12.1327 22.424C12.1471 22.453 10.6584 22.0627 10.6584 22.0627L9.64673 24.3897L12.2916 25.0545C12.7831 25.1846 13.26 25.3002 13.737 25.4303L12.8987 28.7979L14.9221 29.3037L15.7604 25.9651C16.3096 26.1096 16.8588 26.2541 17.3792 26.3842L16.5553 29.7084L18.5788 30.2143L19.417 26.8467C22.8858 27.4971 25.4874 27.2369 26.5713 24.1006C27.453 21.5858 26.528 20.126 24.7069 19.1721C26.051 18.8686 27.0483 17.9869 27.3084 16.1948ZM22.669 22.6987C22.0475 25.2135 17.7983 23.8549 16.4252 23.508L17.5381 19.042C18.9112 19.3889 23.3338 20.0682 22.669 22.6987ZM23.3049 16.1514C22.7268 18.4494 19.2002 17.2787 18.0584 16.9897L19.0702 12.9428C20.212 13.2319 23.8975 13.7666 23.3049 16.1514Z" fill="white"/>
</g>
<defs>
<linearGradient id="paint0_linear_12_1513" x1="1849" y1="-0.887999" x2="1849" y2="3699.63" gradientUnits="userSpaceOnUse">
<stop stop-color="#F9AA4B"/>
<stop offset="1" stop-color="#F7931A"/>
</linearGradient>
<clipPath id="clip0_12_1513">
<rect width="37" height="37" fill="white"/>
</clipPath>
</defs>
</svg>
